<svg xmlns="http://www.w3.org/2000/svg" height="30" width="30" xml:space="preserve" enable-background="new 0 0 30 30" viewBox="0 0 30 30" y="0px" x="0px" version="1.0">
<g transform="translate( 15,15)">
  <g transform="translate( 15,15)">
    <animateTransform repeatCount="indefinite" attributeName="transform" type="rotate" from="0" to="359" begin="0" dur="0.6s"></animateTransform>
    <g transform="translate( -15,-15)">
      <path style="fill:#ffffff" fill-opacity="0.7" d="m 23.0125,5.9410687 2.7,-2.6 1.3,9.1000003 -9.2,-1.3 2.6,-2.6000003 c -3.3,-2.6 -8.1,-2.4 -11.2,0.6 -3.3,3.2000003 -3.3,8.5000003 0,11.7000003 3.3,3.2 8.6,3.2 11.9,0 0.2,-0.2 0.4,-0.5 0.6,-0.7 l 2.6,2.6 c -0.2,0.2 -0.4,0.5 -0.6,0.7 -4.8,4.7 -12.4,4.7 -17.2,0 -4.7,-4.7 -4.7,-12.3 0,-17.0000003 4.5,-4.3 11.7,-4.6 16.5,-0.5 z">
        
    </path></g>
  </g>
  </g>
</svg>